<svg xmlns="http://www.w3.org/2000/svg" viewBox="0 0 64 64">
  <defs>
    <radialGradient id="g" cx="50%" cy="40%" r="60%">
      <stop offset="0%" stop-color="#fff5d4"/>
      <stop offset="55%" stop-color="#f6c567"/>
      <stop offset="100%" stop-color="#b91c1c"/>
    </radialGradient>
  </defs>
  <rect width="64" height="64" rx="14" fill="#1a1413"/>
  <path d="M32 12c-9.4 0-17 7.2-17 16.1 0 5.6 3 10.5 7.6 13.4v4.9c0 1.4 1.2 2.6 2.6 2.6h13.6c1.4 0 2.6-1.2 2.6-2.6v-4.9c4.6-2.9 7.6-7.8 7.6-13.4C49 19.2 41.4 12 32 12z" fill="url(#g)"/>
  <rect x="25" y="50" width="14" height="3.4" rx="1.2" fill="#fbe1c4"/>
  <rect x="26.5" y="55" width="11" height="2.6" rx="1.1" fill="#fbe1c4"/>
  <path d="M27 38l5-12 5 12" stroke="#8a0f12" stroke-width="2" stroke-linejoin="round" fill="none" stroke-linecap="round"/>
</svg>
